<svg xmlns="http://www.w3.org/2000/svg" xmlns:xlink="http://www.w3.org/1999/xlink" version="1.1" x="0px" y="0px" viewBox="0 0 100 125" style="enable-background:new 0 0 100 100;" xml:space="preserve">
<path d="M90.1,45c0-3.6-2.7-6.6-6.3-7c-0.8-3.8-2.2-7.4-4.2-10.7c2.4-4.6,4.3-9.2,4.3-11.8C83.9,9.7,79.2,5,73.4,5  c-4.9,0-9.2,3.4-10.2,8.2c-2-0.8-4.1-1.5-6.2-1.9c-0.4-3.9-3.9-6.7-7.7-6.3C46,5.4,43.3,8,43,11.3c-4.2,0.9-8.3,2.6-11.9,4.9  c-2.8-2.3-6.9-2.1-9.4,0.5c-2.6,2.5-2.8,6.6-0.5,9.4c-2.4,3.6-4.1,7.6-4.9,11.9c-3.9,0.4-6.7,3.8-6.3,7.7c0.3,3.3,3,6,6.3,6.3  c0.9,4.2,2.6,8.3,4.9,11.9c-2.3,2.8-2.1,6.9,0.5,9.4c2.6,2.5,6.6,2.7,9.4,0.5c1,0.6,2,1.2,3.1,1.8L25.9,93c-0.3,0.7,0,1.6,0.7,1.9  c0.7,0.3,1.6,0,1.9-0.7l8.2-17.5c2,0.8,4.1,1.5,6.3,1.9c0.4,3.9,3.9,6.7,7.7,6.3c3.3-0.3,5.9-3,6.3-6.3c2.2-0.4,4.3-1.1,6.3-1.9  l8.2,17.5c0.3,0.7,1.2,1,1.9,0.7c0.7-0.3,1-1.2,0.7-1.9l-8.2-17.5c1.1-0.5,2.1-1.1,3.1-1.8c3,2.5,7.4,2,9.9-1c1-1.3,1.6-2.8,1.6-4.5  c0-1.6-0.6-3.2-1.6-4.5c2.4-3.6,4.1-7.6,4.9-11.9C87.3,51.6,90.1,48.6,90.1,45z M77.6,68.3c0,1.1-0.4,2.2-1.2,3  c-1.3,1.3-3.4,1.6-5,0.7c2.1-1.7,4-3.6,5.7-5.7C77.4,66.9,77.6,67.5,77.6,68.3z M50,82.1c-1.9,0-3.5-1.2-4-3c2.7,0.3,5.4,0.3,8.1,0  C53.5,80.9,51.9,82.1,50,82.1z M50,76.5c-17.4,0-31.6-14.1-31.6-31.5S32.6,13.4,50,13.4c4.5,0,8.9,0.9,13,2.8  c0.2,1.2,0.5,2.4,0.9,3.6c-11.2-6.2-25.2-4.2-34.2,4.8c0,0,0,0,0,0c0,0,0,0,0,0C24.2,30,21.1,37.3,21.1,45  c0,15.9,12.9,28.8,28.9,28.8S78.9,60.8,78.9,45c0-4-0.9-8-2.5-11.7l0,0c0.5-0.9,1.1-1.9,1.6-3c2.4,4.5,3.7,9.6,3.7,14.7  C81.6,62.3,67.4,76.5,50,76.5L50,76.5z M22.4,21.7c0-1.1,0.4-2.2,1.2-3c1.3-1.3,3.4-1.6,5-0.7c-2.1,1.7-4,3.6-5.7,5.7  C22.6,23.1,22.4,22.4,22.4,21.7z M50,7.8c1.9,0,3.5,1.2,4,3c-2.7-0.3-5.4-0.3-8.1,0C46.5,9.1,48.1,7.8,50,7.8z M15.8,49  c-2.2-0.6-3.5-2.9-2.9-5.2c0.4-1.4,1.5-2.5,2.9-2.9C15.4,43.6,15.4,46.3,15.8,49z M22.9,66.2c1.7,2.1,3.6,4,5.7,5.7  c-1.6,0.9-3.7,0.6-5-0.7C22.3,69.9,22,67.9,22.9,66.2z M65.8,15.5c0-4.2,3.4-7.7,7.6-7.7c4.2,0,7.7,3.4,7.7,7.6c0,0,0,0,0,0  c0,2.3-2.7,8.5-7.2,16.3c-0.1,0.2-0.3,0.3-0.5,0.3h0c-0.2,0-0.4-0.1-0.5-0.3C68.5,23.9,65.8,17.8,65.8,15.5z M57.8,45  c0,4.3-3.5,7.8-7.8,7.8c-4.3,0-7.8-3.5-7.8-7.8c0-4.3,3.5-7.8,7.8-7.8c0,0,0,0,0,0C54.3,37.2,57.8,40.7,57.8,45L57.8,45z M66.7,26.2  L56.4,36.5c-1.5-1.1-3.2-1.8-5-2.1V19.1c5.2,0.3,10.3,2.1,14.4,5.4C66.1,25,66.4,25.6,66.7,26.2z M48.6,34.4c-1.8,0.2-3.6,1-5,2.1  L32.7,25.6c4.4-3.9,10-6.3,15.9-6.6V34.4z M41.6,38.5c-1.1,1.5-1.8,3.2-2.1,5H24c0.3-5.9,2.7-11.5,6.6-15.9L41.6,38.5z M39.5,46.3  c0.2,1.8,1,3.6,2.1,5L30.6,62.2c-4-4.4-6.3-10-6.6-15.9L39.5,46.3z M43.5,53.4c1.5,1.1,3.2,1.9,5.1,2.1v15.4  c-5.9-0.3-11.6-2.6-16-6.6L43.5,53.4z M51.4,55.5c1.8-0.2,3.6-1,5.1-2.1l10.9,10.9c-4.4,4-10,6.3-16,6.6V55.5z M58.5,51.4  c1.1-1.5,1.8-3.2,2.1-5H76c-0.3,5.9-2.6,11.5-6.6,15.9L58.5,51.4z M60.5,43.5c-0.3-1.8-1-3.5-2.1-5l9.7-9.6c0.8,1.5,1.6,3,2.4,4.3  c0.6,1.1,1.7,1.7,2.9,1.7h0c0.2,0,0.4,0,0.6,0c1.2,2.7,1.8,5.7,2,8.6H60.5z M84.2,40.9c2.2,0.6,3.5,2.9,2.9,5.2  c-0.4,1.4-1.5,2.5-2.9,2.9C84.6,46.3,84.6,43.6,84.2,40.9z"/>
<path d="M50,39.9c-2.8,0-5,2.3-5,5s2.3,5,5,5c2.8,0,5-2.2,5-5C55,42.2,52.8,39.9,50,39.9z M52.2,45c0,1.2-1,2.2-2.2,2.2  c-1.2,0-2.2-1-2.2-2.2s1-2.2,2.2-2.2c0,0,0,0,0,0C51.2,42.8,52.2,43.8,52.2,45z"/>
<path d="M73.4,20.5c2.8,0,5-2.3,5-5s-2.3-5-5-5c-2.8,0-5,2.3-5,5c0,0,0,0,0,0C68.4,18.3,70.6,20.5,73.4,20.5z M75.6,15.5  c0,1.2-1,2.2-2.2,2.2c-1.2,0-2.2-1-2.2-2.2c0-1.2,1-2.2,2.2-2.2c0,0,0,0,0,0C74.6,13.3,75.6,14.3,75.6,15.5z"/><text x="0" y="115" fill="#000000" font-size="5px" font-weight="bold" font-family="'Helvetica Neue', Helvetica, Arial-Unicode, Arial, Sans-serif">Created by Riyan Resdian</text><text x="0" y="120" fill="#000000" font-size="5px" font-weight="bold" font-family="'Helvetica Neue', Helvetica, Arial-Unicode, Arial, Sans-serif">from the Noun Project</text></svg>
