<svg width="60" height="55" viewBox="0 0 60 55" fill="none" xmlns="http://www.w3.org/2000/svg">
<path d="M28.9221 33.8203C30.7151 33.0508 32.7623 32.0066 34.9194 31.3128C36.3827 30.8388 37.9971 30.8044 39.5497 30.6807C40.2985 30.6189 40.6352 31.0517 40.4909 31.8761C40.4222 32.2883 40.6145 32.7554 40.7176 33.1882C40.8138 33.5936 40.958 33.992 41.068 34.3905C41.4527 35.7713 41.3771 37.159 41.1367 38.5467C41.0954 38.7872 41.1504 39.0551 41.2122 39.2955C41.6656 41.0267 42.1328 42.7579 42.6549 44.7021C43.6441 44.1937 44.8258 43.7953 45.7463 43.0602C46.7631 42.2564 47.2989 41.0542 47.402 39.6871C47.4294 39.3161 47.8073 38.8765 48.1439 38.6429C48.7965 38.1826 49.1057 37.7567 48.9339 36.8705C48.5424 34.8233 48.8927 32.989 50.4728 31.3815C51.1598 30.6807 51.3452 29.4854 51.8399 28.3313H50.3835L50.2529 28.0908C50.8918 27.6031 51.517 27.1016 52.1696 26.6413C53.3512 25.7963 53.4886 25.2948 52.8497 23.8933C51.4139 24.0376 50.6789 23.4743 50.7957 22.1896C51.1254 22.4163 51.3796 22.6568 51.6819 22.7736C52.0048 22.9041 52.3689 22.9178 53.0833 23.0552C52.5131 21.3103 52.1147 19.7508 51.4964 18.2807C50.3422 15.5465 48.6591 13.1489 46.4539 11.1498C45.657 10.4284 44.8051 9.75519 43.9258 9.11629C42.6343 8.17512 41.0405 8.52549 40.1405 9.87885C39.9825 10.1124 39.7833 10.3529 39.5428 10.4765C38.5742 10.9849 38.5261 11.6787 38.8833 12.3245C39.7833 12.4963 40.4978 12.6337 41.3771 12.8054C42.0023 12.0635 41.0954 10.2636 42.9503 9.92693C42.8198 10.3116 42.5931 10.662 42.6137 11.0055C42.6274 11.3009 42.9228 11.5757 43.1426 11.9329C42.7785 12.4138 42.3938 13.1283 41.8168 13.616C41.2397 14.1038 40.3397 13.6916 39.9207 12.9222C39.5154 13.3412 39.0963 13.7672 38.533 14.3511C37.9765 13.4306 37.53 12.6955 37.0834 11.9673C37.0147 11.9948 36.946 12.0154 36.8842 12.0428C36.9667 12.9771 37.056 13.9046 37.1521 14.9488C37.317 14.9694 37.5987 15.0038 38.059 15.0587C36.2934 16.2953 34.6721 17.4288 32.9134 18.6585C34.3699 19.8264 35.7232 20.9118 37.0903 22.0041C36.9392 22.1759 36.8773 22.2789 36.843 22.2721C34.4317 21.7225 32.7829 23.4468 30.8456 24.2849C27.5893 25.6932 24.3536 27.1496 21.1454 28.6473C20.0943 29.1419 19.6478 28.2488 18.8577 27.8504C18.4593 28.1389 18.0127 28.4274 17.6143 28.7778C16.7899 29.4991 15.9999 29.293 15.6083 28.2213C15.2236 27.184 14.832 26.1398 14.4129 25.02C14.2275 25.1643 14.0351 25.3704 13.8015 25.5009C13.4443 25.6932 12.9291 26.0505 12.723 25.9268C12.4069 25.7413 12.1802 25.2192 12.1322 24.8139C11.9604 23.3163 12.5443 22.8903 13.9458 22.3682C15.2098 21.9011 16.1029 21.8186 16.893 23.2476C16.6388 21.6881 17.8753 21.1523 18.4112 20.218C19.057 19.0844 20.1493 18.473 20.8912 17.4906C21.0904 17.2296 21.5851 17.209 21.9217 17.0372C22.4094 16.783 22.8766 16.4876 23.3575 16.206C23.3163 16.0892 23.275 15.9724 23.2338 15.8487C22.7529 15.7594 22.272 15.6701 21.7912 15.574C21.7774 15.5053 21.7568 15.4366 21.7431 15.3747C22.2034 15.2717 22.6568 15.1618 23.117 15.0587C23.6392 14.9351 24.1956 14.8801 24.6696 14.6603C24.8414 14.5778 24.9307 13.8565 24.8963 13.8496C24.2437 13.6023 24.4292 12.8672 24.1338 12.5375C23.5224 11.8642 22.7049 11.3833 21.9286 10.875C21.8461 10.82 21.4339 11.0948 21.3171 11.3009C20.7744 12.2627 20.2867 13.2519 19.8126 14.1519C19.1188 13.7191 18.5967 13.4237 18.1227 13.0802C17.8479 12.8878 17.4838 12.6199 17.4494 12.352C17.4219 12.1184 17.7517 11.7681 18.0127 11.5894C18.6654 11.136 19.3592 10.7582 20.0531 10.3391C20.3691 10.6483 20.6782 11.1085 21.0973 10.3529C22.0247 8.71097 22.5468 8.62166 24.1613 9.74832C24.7887 10.188 25.352 10.1742 25.8512 9.7071C25.1093 9.21934 24.4361 8.62853 23.6529 8.29878C22.8972 7.98277 22.0316 7.53623 21.2965 8.27817C21.1523 8.71097 21.0149 9.11629 20.7882 9.78267C20.4996 9.30178 20.3691 9.08881 20.1974 8.80028C17.8547 10.2567 15.9518 12.1115 14.3855 14.303C11.6719 18.1021 10.3254 22.3476 10.346 27.026C10.346 27.7748 10.6139 28.3106 11.3146 28.3244C12.5787 28.3587 13.3825 28.9908 14.0626 29.9525C14.2618 30.2342 14.5709 30.4334 15.0862 30.9006C13.1283 31.2029 11.4314 31.4639 9.73458 31.7318C9.04072 31.8417 8.80028 31.512 8.69723 30.8456C7.48127 23.1514 9.41856 16.3365 14.7839 10.717C26.5245 -1.57319 46.5501 1.92356 53.3375 17.5044C59.2799 31.1479 51.2834 46.4951 36.843 49.7446C27.4313 51.8605 17.3807 47.7523 12.1665 39.6459C12.0291 39.4329 11.9261 39.2062 11.7543 38.8902C13.2107 38.6017 14.6053 38.2101 16.0136 38.1208C16.4876 38.0933 17.0029 38.849 17.5112 39.2337C18.3425 39.8657 18.7547 40.5665 18.5211 41.7275C18.2944 42.861 18.8852 43.8709 19.8195 44.5853C20.1905 44.867 20.6027 45.1074 21.0149 45.341C22.3957 46.1379 22.3064 46.0349 23.5361 44.9425C24.175 44.3723 25.0681 44.0151 25.1643 43.0946C25.3017 41.7893 25.4047 40.6489 27.0603 40.3123C27.3763 40.2504 27.6511 39.11 27.6237 38.478C27.5824 37.5231 27.7198 36.7537 28.3038 35.9499C28.6747 35.4484 28.6816 34.679 28.9152 33.8065L28.9221 33.8203ZM25.8306 6.71185C26.6001 7.19961 27.1496 7.48127 27.6168 7.85911C28.1183 8.2713 28.29 8.76593 27.7198 9.32926C27.1909 9.85137 27.555 11.404 28.2626 11.6375C28.4343 11.6925 28.8465 11.562 28.8877 11.4246C29.4167 9.85137 30.8387 9.58344 32.1371 9.23995C33.4287 8.90333 34.0126 8.07895 34.3561 6.88359C34.5622 6.16226 34.3973 5.64015 33.6966 5.61954C31.986 5.56458 30.2686 5.55084 28.5717 5.71572C27.6992 5.80503 26.8611 6.31339 25.8238 6.69811L25.8306 6.71185ZM34.9469 9.8445C34.466 9.92006 33.9851 9.98876 33.4562 10.0712C34.0195 11.1017 34.1638 11.1017 34.9469 9.8445Z" fill="black"/>
<path d="M35.4141 29.0183C33.0921 30.0075 30.7494 31.0517 28.3793 31.9998C23.1995 34.0745 17.9784 36.0598 12.4069 36.7881C10.8818 36.9873 9.27429 37.0148 7.76292 36.7606C3.85398 36.1079 2.05408 32.0547 4.20434 28.716C5.16612 27.2252 6.51261 25.9749 7.68735 24.6147L7.95528 24.8276C7.44691 25.6589 6.90419 26.4695 6.45765 27.3283C6.10729 27.9946 5.81189 28.7091 5.6264 29.4373C5.0562 31.7181 6.06607 33.2982 8.42243 33.4768C9.94754 33.5936 11.5413 33.4356 13.039 33.1127C18.9196 31.8486 24.3673 29.3755 29.7945 26.868C30.1586 26.7031 30.5021 26.4902 30.8731 26.3596C31.6494 26.0986 32.6043 25.4872 33.202 25.7276C34.8576 26.394 35.0637 26.9298 35.4278 29.0114L35.4141 29.0183Z" fill="black"/>
<path d="M42.9022 28.4892C42.3526 26.9023 41.7962 25.3222 41.1916 23.5979C40.1336 24.2711 39.1444 24.8551 38.217 25.5283C37.9971 25.6863 37.9765 26.1397 37.8666 26.4558C37.688 26.9847 37.5162 27.5137 37.1659 28.0221C36.6575 26.5451 36.1354 25.2123 34.4866 24.6833C34.5416 24.5459 34.5897 24.4085 34.6446 24.2643C35.1874 24.2505 35.7301 24.2643 36.2659 24.2162C36.7262 24.1818 37.2689 24.2162 37.6262 23.9895C38.4711 23.4536 39.2268 22.7804 40.113 22.0865C38.7116 20.953 37.4063 19.8951 36.0942 18.8371C37.1659 17.6898 37.4681 17.6349 38.7597 18.2669C39.8314 18.789 40.8756 19.3729 41.9816 19.8195C42.3732 19.9775 42.9434 19.9225 43.3419 19.7508C44.0014 19.4691 44.5853 19.0226 45.2036 18.6447C45.6845 18.3425 46.2959 18.0265 46.5844 18.6791C46.7287 18.9951 46.3852 19.6615 46.0829 20.0118C45.6433 20.5202 44.9631 20.8294 44.5235 21.3377C44.2143 21.695 43.9533 22.2445 43.967 22.698C44.0014 23.8864 44.1456 25.0818 44.338 26.2565C44.5372 27.4313 44.0838 28.1251 42.8953 28.503L42.9022 28.4892Z" fill="black"/>
<path d="M47.031 22.6155C48.453 24.2505 49.2912 26.1741 49.7652 28.4686C49.4354 28.345 49.1057 28.3244 49.037 28.1801C48.1989 26.3871 47.402 24.5803 46.5982 22.7735C46.7424 22.7186 46.8936 22.6636 47.0378 22.6086L47.031 22.6155Z" fill="black"/>
</svg>
