<svg width="92" height="49" viewBox="0 0 92 49" fill="none" xmlns="http://www.w3.org/2000/svg">
<path d="M76.684 43.7914C74.4189 37.251 72.1255 30.7389 69.634 23.6322C65.2737 26.407 61.1965 28.8136 57.3742 31.5883C56.4682 32.2395 56.3832 34.1082 55.9302 35.4106C55.1941 37.5908 54.4862 39.7709 53.0423 41.8661C50.9471 35.7787 48.7952 30.2859 42 28.1058C42.2265 27.5395 42.4247 26.9732 42.6512 26.3786C44.888 26.322 47.1247 26.3786 49.3332 26.1805C51.2302 26.0389 53.467 26.1804 54.9393 25.2461C58.4218 23.0376 61.5363 20.2629 65.1887 17.4033C59.4128 12.7315 54.0332 8.37127 48.6254 4.01099C53.0423 -0.717359 54.288 -0.943867 59.611 1.66097C64.0279 3.8128 68.3315 6.21944 72.89 8.05982C74.5039 8.71103 76.8539 8.48452 78.4961 7.77669C81.2142 6.61583 83.6208 4.77545 86.169 3.21821C88.151 1.97242 90.6709 0.670003 91.86 3.35978C92.4546 4.6622 91.039 7.40861 89.7932 8.8526C87.9811 10.9478 85.1781 12.2219 83.366 14.3171C82.0919 15.7894 81.016 18.0545 81.0726 19.9232C81.2142 24.8214 81.8088 29.748 82.6015 34.5896C83.4226 39.4312 81.5539 42.2908 76.6557 43.8481L76.684 43.7914Z" fill="black"/>
<path d="M46.7678 37.41C43.3878 38.85 39.9778 40.37 36.5278 41.75C28.9878 44.77 21.3878 47.66 13.2778 48.72C11.0578 49.01 8.7178 49.05 6.5178 48.68C0.8278 47.73 -1.7922 41.83 1.3378 36.97C2.7378 34.8 4.6978 32.98 6.4078 31L6.7978 31.31C6.0578 32.52 5.2678 33.7 4.6178 34.95C4.1078 35.92 3.6778 36.96 3.4078 38.02C2.5778 41.34 4.0478 43.64 7.4778 43.9C9.6978 44.07 12.0178 43.84 14.1978 43.37C22.7578 41.53 30.6878 37.93 38.5878 34.28C39.1178 34.04 39.6178 33.73 40.1578 33.54C41.2878 33.16 42.6778 32.27 43.5478 32.62C45.9578 33.59 46.2578 34.37 46.7878 37.4L46.7678 37.41Z" fill="black"/>
</svg>
